<mxfile host="app.diagrams.net" modified="2024-05-26T11:36:32.647Z" agent="Mozilla/5.0 (Windows NT 10.0; Win64; x64) AppleWebKit/537.36 (KHTML, like Gecko) Chrome/122.0.0.0 YaBrowser/24.4.0.0 Safari/537.36" etag="WXZa-c7tjx-4-vLwXGLv" version="24.4.8" type="device">
  <diagram name="Page-1" id="13e1069c-82ec-6db2-03f1-153e76fe0fe0">
    <mxGraphModel dx="1050" dy="567" grid="1" gridSize="10" guides="1" tooltips="1" connect="1" arrows="1" fold="1" page="1" pageScale="1" pageWidth="1100" pageHeight="850" background="none" math="0" shadow="0">
      <root>
        <mxCell id="0" />
        <mxCell id="1" parent="0" />
        <mxCell id="7baba1c4bc27f4b0-2" value="Мобильное приложение" style="shape=umlLifeline;perimeter=lifelinePerimeter;whiteSpace=wrap;html=1;container=1;collapsible=0;recursiveResize=0;outlineConnect=0;rounded=1;shadow=0;comic=0;labelBackgroundColor=none;strokeWidth=1;fontFamily=Verdana;fontSize=12;align=center;fillColor=#A8DADC;strokeColor=#457B9D;fontColor=#1D3557;" parent="1" vertex="1">
          <mxGeometry x="240" y="80" width="100" height="580" as="geometry" />
        </mxCell>
        <mxCell id="7baba1c4bc27f4b0-10" value="" style="html=1;points=[];perimeter=orthogonalPerimeter;rounded=1;shadow=0;comic=0;labelBackgroundColor=none;strokeWidth=1;fontFamily=Verdana;fontSize=12;align=center;fillColor=#A8DADC;strokeColor=#457B9D;fontColor=#1D3557;" parent="7baba1c4bc27f4b0-2" vertex="1">
          <mxGeometry x="45" y="100" width="10" height="230" as="geometry" />
        </mxCell>
        <mxCell id="b2K1SDZUfyaz3v4ut0lS-14" value="" style="html=1;points=[[0,0,0,0,5],[0,1,0,0,-5],[1,0,0,0,5],[1,1,0,0,-5]];perimeter=orthogonalPerimeter;outlineConnect=0;targetShapes=umlLifeline;portConstraint=eastwest;newEdgeStyle={&quot;curved&quot;:0,&quot;rounded&quot;:0};rounded=1;labelBackgroundColor=none;fillColor=#A8DADC;strokeColor=#457B9D;fontColor=#1D3557;" parent="7baba1c4bc27f4b0-2" vertex="1">
          <mxGeometry x="45" y="360" width="10" height="100" as="geometry" />
        </mxCell>
        <mxCell id="b2K1SDZUfyaz3v4ut0lS-15" value="Изменение&amp;nbsp;&lt;div&gt;статуса заказа&lt;/div&gt;" style="html=1;verticalAlign=bottom;endArrow=block;curved=0;rounded=1;dashed=1;labelBackgroundColor=none;strokeColor=#457B9D;fontColor=default;" parent="7baba1c4bc27f4b0-2" edge="1">
          <mxGeometry width="80" relative="1" as="geometry">
            <mxPoint x="45" y="380" as="sourcePoint" />
            <mxPoint x="-90.5" y="380" as="targetPoint" />
          </mxGeometry>
        </mxCell>
        <mxCell id="7baba1c4bc27f4b0-23" value="Оплатить заказ" style="html=1;verticalAlign=bottom;endArrow=block;entryX=0;entryY=0;labelBackgroundColor=none;fontFamily=Verdana;fontSize=12;strokeColor=#457B9D;fontColor=default;" parent="7baba1c4bc27f4b0-2" edge="1">
          <mxGeometry relative="1" as="geometry">
            <mxPoint x="-85" y="520.0000000000001" as="sourcePoint" />
            <mxPoint x="345" y="520.0000000000001" as="targetPoint" />
          </mxGeometry>
        </mxCell>
        <mxCell id="7baba1c4bc27f4b0-30" value="Передать заказ" style="html=1;verticalAlign=bottom;endArrow=open;dashed=1;endSize=8;labelBackgroundColor=none;fontFamily=Verdana;fontSize=12;edgeStyle=elbowEdgeStyle;elbow=vertical;strokeColor=#457B9D;fontColor=default;" parent="7baba1c4bc27f4b0-2" edge="1">
          <mxGeometry relative="1" as="geometry">
            <mxPoint x="-85" y="550" as="targetPoint" />
            <Array as="points">
              <mxPoint x="330" y="550" />
            </Array>
            <mxPoint x="340" y="550" as="sourcePoint" />
          </mxGeometry>
        </mxCell>
        <mxCell id="7baba1c4bc27f4b0-3" value="Ресторан" style="shape=umlLifeline;perimeter=lifelinePerimeter;whiteSpace=wrap;html=1;container=1;collapsible=0;recursiveResize=0;outlineConnect=0;rounded=1;shadow=0;comic=0;labelBackgroundColor=none;strokeWidth=1;fontFamily=Verdana;fontSize=12;align=center;fillColor=#A8DADC;strokeColor=#457B9D;fontColor=#1D3557;" parent="1" vertex="1">
          <mxGeometry x="400" y="80" width="100" height="580" as="geometry" />
        </mxCell>
        <mxCell id="b2K1SDZUfyaz3v4ut0lS-17" value="" style="html=1;points=[[0,0,0,0,5],[0,1,0,0,-5],[1,0,0,0,5],[1,1,0,0,-5]];perimeter=orthogonalPerimeter;outlineConnect=0;targetShapes=umlLifeline;portConstraint=eastwest;newEdgeStyle={&quot;curved&quot;:0,&quot;rounded&quot;:0};rounded=1;labelBackgroundColor=none;fillColor=#A8DADC;strokeColor=#457B9D;fontColor=#1D3557;" parent="7baba1c4bc27f4b0-3" vertex="1">
          <mxGeometry x="45" y="405" width="10" height="80" as="geometry" />
        </mxCell>
        <mxCell id="b2K1SDZUfyaz3v4ut0lS-20" value="Уведомить курьера, что он может забрать заказ" style="html=1;verticalAlign=bottom;endArrow=block;curved=0;rounded=1;labelBackgroundColor=none;strokeColor=#457B9D;fontColor=default;" parent="7baba1c4bc27f4b0-3" edge="1">
          <mxGeometry width="80" relative="1" as="geometry">
            <mxPoint x="-106.32965517241382" y="450.0000000000001" as="sourcePoint" />
            <mxPoint x="190" y="450" as="targetPoint" />
          </mxGeometry>
        </mxCell>
        <mxCell id="7baba1c4bc27f4b0-4" value="Курьер" style="shape=umlLifeline;perimeter=lifelinePerimeter;whiteSpace=wrap;html=1;container=1;collapsible=0;recursiveResize=0;outlineConnect=0;rounded=1;shadow=0;comic=0;labelBackgroundColor=none;strokeWidth=1;fontFamily=Verdana;fontSize=12;align=center;fillColor=#A8DADC;strokeColor=#457B9D;fontColor=#1D3557;" parent="1" vertex="1">
          <mxGeometry x="540" y="80" width="100" height="580" as="geometry" />
        </mxCell>
        <mxCell id="b2K1SDZUfyaz3v4ut0lS-21" value="Передача заказа" style="html=1;verticalAlign=bottom;endArrow=block;curved=0;rounded=1;labelBackgroundColor=none;strokeColor=#457B9D;fontColor=default;" parent="7baba1c4bc27f4b0-4" edge="1">
          <mxGeometry width="80" relative="1" as="geometry">
            <mxPoint x="-85" y="480" as="sourcePoint" />
            <mxPoint x="49.5" y="480" as="targetPoint" />
          </mxGeometry>
        </mxCell>
        <mxCell id="7baba1c4bc27f4b0-8" value="Клиент&lt;div&gt;&lt;br&gt;&lt;/div&gt;" style="shape=umlLifeline;perimeter=lifelinePerimeter;whiteSpace=wrap;html=1;container=1;collapsible=0;recursiveResize=0;outlineConnect=0;rounded=1;shadow=0;comic=0;labelBackgroundColor=none;strokeWidth=1;fontFamily=Verdana;fontSize=12;align=center;fillColor=#A8DADC;strokeColor=#457B9D;fontColor=#1D3557;" parent="1" vertex="1">
          <mxGeometry x="100" y="80" width="100" height="580" as="geometry" />
        </mxCell>
        <mxCell id="7baba1c4bc27f4b0-9" value="" style="html=1;points=[];perimeter=orthogonalPerimeter;rounded=1;shadow=0;comic=0;labelBackgroundColor=none;strokeWidth=1;fontFamily=Verdana;fontSize=12;align=center;fillColor=#A8DADC;strokeColor=#457B9D;fontColor=#1D3557;" parent="7baba1c4bc27f4b0-8" vertex="1">
          <mxGeometry x="45" y="100" width="10" height="460" as="geometry" />
        </mxCell>
        <mxCell id="b2K1SDZUfyaz3v4ut0lS-6" value="" style="endArrow=open;endFill=1;endSize=12;html=1;rounded=1;labelBackgroundColor=none;strokeColor=#457B9D;fontColor=default;" parent="7baba1c4bc27f4b0-8" edge="1">
          <mxGeometry width="160" relative="1" as="geometry">
            <mxPoint x="55" y="240" as="sourcePoint" />
            <mxPoint x="185" y="240" as="targetPoint" />
          </mxGeometry>
        </mxCell>
        <mxCell id="b2K1SDZUfyaz3v4ut0lS-7" value="Создать заказ" style="edgeLabel;html=1;align=center;verticalAlign=middle;resizable=0;points=[];rounded=1;labelBackgroundColor=none;fontColor=#1D3557;" parent="b2K1SDZUfyaz3v4ut0lS-6" vertex="1" connectable="0">
          <mxGeometry x="-0.1538" y="1" relative="1" as="geometry">
            <mxPoint x="10" y="-9" as="offset" />
          </mxGeometry>
        </mxCell>
        <mxCell id="7baba1c4bc27f4b0-22" value="" style="html=1;points=[];perimeter=orthogonalPerimeter;rounded=1;shadow=0;comic=0;labelBackgroundColor=none;strokeWidth=1;fontFamily=Verdana;fontSize=12;align=center;fillColor=#A8DADC;strokeColor=#457B9D;fontColor=#1D3557;" parent="1" vertex="1">
          <mxGeometry x="585" y="440" width="10" height="200" as="geometry" />
        </mxCell>
        <mxCell id="7baba1c4bc27f4b0-11" value="открыть&lt;div&gt;&amp;nbsp;приложение&lt;/div&gt;" style="html=1;verticalAlign=bottom;endArrow=block;entryX=0;entryY=0;labelBackgroundColor=none;fontFamily=Verdana;fontSize=12;edgeStyle=elbowEdgeStyle;elbow=vertical;strokeColor=#457B9D;fontColor=default;" parent="1" source="7baba1c4bc27f4b0-9" target="7baba1c4bc27f4b0-10" edge="1">
          <mxGeometry relative="1" as="geometry">
            <mxPoint x="220" y="190" as="sourcePoint" />
          </mxGeometry>
        </mxCell>
        <mxCell id="b2K1SDZUfyaz3v4ut0lS-4" value="Составить меню&lt;div&gt;&amp;nbsp;на основе рек системы&lt;/div&gt;" style="endArrow=open;endSize=12;dashed=1;html=1;rounded=1;entryX=1.083;entryY=0.112;entryDx=0;entryDy=0;entryPerimeter=0;labelBackgroundColor=none;strokeColor=#457B9D;fontColor=default;" parent="1" source="7baba1c4bc27f4b0-2" target="7baba1c4bc27f4b0-9" edge="1">
          <mxGeometry x="0.0399" y="-19" width="160" relative="1" as="geometry">
            <mxPoint x="310" y="230" as="sourcePoint" />
            <mxPoint x="470" y="230" as="targetPoint" />
            <mxPoint as="offset" />
          </mxGeometry>
        </mxCell>
        <mxCell id="b2K1SDZUfyaz3v4ut0lS-2" value="" style="endArrow=classic;html=1;rounded=1;labelBackgroundColor=none;strokeColor=#457B9D;fontColor=default;" parent="1" edge="1">
          <mxGeometry width="50" height="50" relative="1" as="geometry">
            <mxPoint x="154.66666666666663" y="270" as="sourcePoint" />
            <mxPoint x="285" y="270" as="targetPoint" />
          </mxGeometry>
        </mxCell>
        <mxCell id="b2K1SDZUfyaz3v4ut0lS-5" value="Выбрать блюда&amp;nbsp;&lt;div&gt;в корзину&lt;/div&gt;" style="edgeLabel;html=1;align=center;verticalAlign=middle;resizable=0;points=[];rounded=1;labelBackgroundColor=none;fontColor=#1D3557;" parent="b2K1SDZUfyaz3v4ut0lS-2" vertex="1" connectable="0">
          <mxGeometry x="-0.0358" y="-1" relative="1" as="geometry">
            <mxPoint y="-21" as="offset" />
          </mxGeometry>
        </mxCell>
        <mxCell id="b2K1SDZUfyaz3v4ut0lS-8" value="Рассчитать время&lt;div&gt;&amp;nbsp;доставки&lt;/div&gt;" style="endArrow=open;endSize=12;dashed=1;html=1;rounded=1;exitX=-0.083;exitY=0.79;exitDx=0;exitDy=0;exitPerimeter=0;entryX=1.033;entryY=0.409;entryDx=0;entryDy=0;entryPerimeter=0;labelBackgroundColor=none;strokeColor=#457B9D;fontColor=default;" parent="1" source="7baba1c4bc27f4b0-10" target="7baba1c4bc27f4b0-9" edge="1">
          <mxGeometry x="-0.0016" y="-11" width="160" relative="1" as="geometry">
            <mxPoint x="310" y="310" as="sourcePoint" />
            <mxPoint x="160" y="360" as="targetPoint" />
            <mxPoint as="offset" />
          </mxGeometry>
        </mxCell>
        <mxCell id="b2K1SDZUfyaz3v4ut0lS-9" style="edgeStyle=orthogonalEdgeStyle;rounded=1;orthogonalLoop=1;jettySize=auto;html=1;entryX=-0.086;entryY=0.956;entryDx=0;entryDy=0;entryPerimeter=0;exitX=1.079;exitY=0.481;exitDx=0;exitDy=0;exitPerimeter=0;labelBackgroundColor=none;strokeColor=#457B9D;fontColor=default;" parent="1" source="7baba1c4bc27f4b0-9" target="7baba1c4bc27f4b0-10" edge="1">
          <mxGeometry relative="1" as="geometry" />
        </mxCell>
        <mxCell id="b2K1SDZUfyaz3v4ut0lS-10" value="Оплатить заказ" style="edgeLabel;html=1;align=center;verticalAlign=middle;resizable=0;points=[];rounded=1;labelBackgroundColor=none;fontColor=#1D3557;" parent="b2K1SDZUfyaz3v4ut0lS-9" vertex="1" connectable="0">
          <mxGeometry x="0.008" y="2" relative="1" as="geometry">
            <mxPoint x="-1" y="-8" as="offset" />
          </mxGeometry>
        </mxCell>
        <mxCell id="b2K1SDZUfyaz3v4ut0lS-11" value="Отправить детали заказа" style="html=1;verticalAlign=bottom;endArrow=block;curved=0;rounded=1;exitX=1.2;exitY=0.917;exitDx=0;exitDy=0;exitPerimeter=0;labelBackgroundColor=none;strokeColor=#457B9D;fontColor=default;" parent="1" source="7baba1c4bc27f4b0-13" target="7baba1c4bc27f4b0-3" edge="1">
          <mxGeometry x="1" y="-102" width="80" relative="1" as="geometry">
            <mxPoint x="290" y="230" as="sourcePoint" />
            <mxPoint x="370" y="230" as="targetPoint" />
            <mxPoint x="-79" y="37" as="offset" />
          </mxGeometry>
        </mxCell>
        <mxCell id="b2K1SDZUfyaz3v4ut0lS-12" value="" style="html=1;verticalAlign=bottom;endArrow=block;curved=0;rounded=1;exitX=1.2;exitY=0.917;exitDx=0;exitDy=0;exitPerimeter=0;labelBackgroundColor=none;strokeColor=#457B9D;fontColor=default;" parent="1" source="7baba1c4bc27f4b0-10" target="7baba1c4bc27f4b0-13" edge="1">
          <mxGeometry x="-0.0033" width="80" relative="1" as="geometry">
            <mxPoint x="297" y="391" as="sourcePoint" />
            <mxPoint x="450" y="391" as="targetPoint" />
            <mxPoint as="offset" />
          </mxGeometry>
        </mxCell>
        <mxCell id="7baba1c4bc27f4b0-13" value="" style="html=1;points=[];perimeter=orthogonalPerimeter;rounded=1;shadow=0;comic=0;labelBackgroundColor=none;strokeWidth=1;fontFamily=Verdana;fontSize=12;align=center;fillColor=#A8DADC;strokeColor=#457B9D;fontColor=#1D3557;" parent="1" vertex="1">
          <mxGeometry x="445" y="385" width="10" height="65" as="geometry" />
        </mxCell>
        <mxCell id="b2K1SDZUfyaz3v4ut0lS-13" value="Подтверждение заказа" style="endArrow=open;endSize=12;dashed=1;html=1;rounded=1;labelBackgroundColor=none;strokeColor=#457B9D;fontColor=default;" parent="1" edge="1">
          <mxGeometry x="-0.0625" width="160" relative="1" as="geometry">
            <mxPoint x="445" y="440" as="sourcePoint" />
            <mxPoint x="285" y="440" as="targetPoint" />
            <Array as="points">
              <mxPoint x="370" y="440" />
            </Array>
            <mxPoint as="offset" />
          </mxGeometry>
        </mxCell>
        <mxCell id="b2K1SDZUfyaz3v4ut0lS-16" value="Назначить курьера" style="html=1;verticalAlign=bottom;endArrow=block;curved=0;rounded=1;labelBackgroundColor=none;strokeColor=#457B9D;fontColor=default;" parent="1" target="7baba1c4bc27f4b0-4" edge="1">
          <mxGeometry width="80" relative="1" as="geometry">
            <mxPoint x="300" y="470" as="sourcePoint" />
            <mxPoint x="370" y="400" as="targetPoint" />
          </mxGeometry>
        </mxCell>
        <mxCell id="b2K1SDZUfyaz3v4ut0lS-19" value="Изменить статус на&amp;nbsp;&lt;div&gt;&quot;Заказ приготовлен&quot;&lt;/div&gt;" style="html=1;verticalAlign=bottom;endArrow=open;curved=0;rounded=1;dashed=1;endFill=0;sketch=1;curveFitting=1;jiggle=2;labelBackgroundColor=none;strokeColor=#457B9D;fontColor=default;" parent="1" target="7baba1c4bc27f4b0-8" edge="1">
          <mxGeometry x="0.5244" width="80" relative="1" as="geometry">
            <mxPoint x="445" y="500" as="sourcePoint" />
            <mxPoint x="289.81034482758616" y="500" as="targetPoint" />
            <mxPoint as="offset" />
          </mxGeometry>
        </mxCell>
        <mxCell id="b2K1SDZUfyaz3v4ut0lS-22" value="Изменить статус заказа &quot;Доставляется&quot;" style="endArrow=open;endSize=12;dashed=1;html=1;rounded=1;entryX=1.079;entryY=0.856;entryDx=0;entryDy=0;entryPerimeter=0;labelBackgroundColor=none;strokeColor=#457B9D;fontColor=default;" parent="1" source="7baba1c4bc27f4b0-4" target="7baba1c4bc27f4b0-9" edge="1">
          <mxGeometry width="160" relative="1" as="geometry">
            <mxPoint x="340" y="490" as="sourcePoint" />
            <mxPoint x="500" y="490" as="targetPoint" />
          </mxGeometry>
        </mxCell>
        <mxCell id="b2K1SDZUfyaz3v4ut0lS-23" value="Изменить статус&lt;div&gt;&quot;Ждём курьера&quot;&lt;/div&gt;" style="endArrow=open;endSize=12;dashed=1;html=1;rounded=1;labelBackgroundColor=none;strokeColor=#457B9D;fontColor=default;" parent="1" edge="1">
          <mxGeometry width="160" relative="1" as="geometry">
            <mxPoint x="285" y="530" as="sourcePoint" />
            <mxPoint x="149.81034482758605" y="530" as="targetPoint" />
          </mxGeometry>
        </mxCell>
      </root>
    </mxGraphModel>
  </diagram>
</mxfile>
